<svg xmlns="http://www.w3.org/2000/svg" width="430" height="430" fill="none" viewBox="0 0 430 430"><path fill="#000" d="M260.951 298.546a4.94 4.94 0 0 1-3.43 1.29l-190.69 72a7 7 0 0 1-7.388-1.612 7 7 0 0 1-1.612-7.388l71.93-190.73a5 5 0 0 1 1.29-3.45c7.19-7.19 42.1 16.06 78 51.93s59.08 70.78 51.9 77.96"/><path fill="#000" d="M260.951 298.546a4.94 4.94 0 0 1-3.43 1.29c-11.6.52-42.68-21.37-74.53-53.22-19.21-19.21-34.81-38.15-44-52.7l-63.76 168.86a6.86 6.86 0 0 0 .34 5.72l-8.74 3.3a7 7 0 0 1-7.388-1.612 7 7 0 0 1-1.612-7.388l71.93-190.69a5 5 0 0 1 1.29-3.45c.11-.11.23-.21.35-.31q.38-.286.81-.49.23-.106.47-.18a7.9 7.9 0 0 1 3.38-.26q.645.061 1.28.19c.44.09.91.19 1.38.31l.87.24c.7.21 1.43.46 2.2.75s1.75.68 2.68 1.11c.49.21 1 .45 1.51.7s.84.4 1.27.62c15.15 7.64 38.25 25.73 61.76 49.25 35.87 35.87 59.12 70.78 51.94 77.96" opacity=".5" style="mix-blend-mode:multiply"/><path stroke="#fff" stroke-linecap="round" stroke-linejoin="round" stroke-width="10.5" d="M131.061 168.656c7.19-7.19 42.09 16.06 78 51.93s59.12 70.78 51.93 78m66.091-150.67c-9.74 10.89-28.11-5.53-37.85 5.37s8.62 27.31-1.12 38.21-28.11-5.52-37.85 5.38m-4.511-129.13c.47 14.61-24.15 15.41-23.67 30s25.09 13.83 25.56 28.48-24.14 15.4-23.67 30m-45.789-86.26 7.28-12.24m135.529 295.71-15.3 9.29m60.151-69.99 7.28-12.24M56.88 231.106l10.07-10.07m271.161-137.56-10.07-10.06m-114.12 289.34-5.13-13.28m-124.1-214.3 10.79 9.28m254.26 67.73-3.85-13.71"/><path stroke="#fff" stroke-linecap="round" stroke-linejoin="round" stroke-width="10.5" d="M321.09 309.015c0-68.78-90.53-72.37-120.27-46.15m-30.06-29.869c27.34-47.57-2.52-169.29-95.77-150.3"/><path fill="#fff" d="m68.209 335.492 15.506-41.062 51.579 51.579-41.064 15.505zm27.959-74.041 15.506-41.062 97.663 97.663-41.063 15.505z"/><path fill="#fff" d="m124.244 232.959-15.504 41.065-12.572-12.573 15.506-41.062zm-27.955 74.045-15.504 41.065-12.576-12.577 15.506-41.062z" opacity=".5" style="mix-blend-mode:multiply"/><path stroke="#fff" stroke-linecap="round" stroke-linejoin="round" stroke-width="10.5" d="m129.77 172.085-72 190.69a7.002 7.002 0 0 0 5.07 9.278 7 7 0 0 0 3.93-.278l190.68-72"/><path stroke="#fff" stroke-linecap="round" stroke-linejoin="round" stroke-width="10.5" d="M260.95 298.546c-7.18 7.19-42.09-16.06-78-51.93s-59.11-70.77-51.93-78"/></svg>