<svg xmlns="http://www.w3.org/2000/svg" width="430" height="430" fill="none" viewBox="0 0 430 430"><path fill="#fff" d="M127.848 136.306s-21.71-21.98-41.9.62c-16.86 18.86-10 96.04 66.47 154.63"/><path fill="#fff" d="M127.848 136.306s-21.71-21.98-41.9.62c-16.86 18.86-10 96.04 66.47 154.63" opacity=".5" style="mix-blend-mode:multiply"/><path fill="#fff" d="M152.428 291.585c-30.23-43.18-28.32-123.87-22.5-178.92 3.46-32.85 31.14-57.8 64.17-57.8h69.81c33.04 0 60.71 24.95 64.18 57.8 5.81 55.05 7.73 135.73-22.5 178.92"/><path fill="#fff" d="M331.618 188.626s-1.36-.79-2.41-2.2c-3.89-5.17-9.26-13.94-21.3-20.97-.17-.16-.27-.26-.29-.27 18.09 1.04 23.94 12.87 23.94 12.87.02.02.05.04.07.07-.02 3.1-.08 6.2-.17 9.3-.07.64.17 1.2.17 1.2zm-40.88-65.43c23.53-.33 38.53 12.03 38.53 12.03.11.77.21 1.51.31 2.24.38 5.59.69 11.33.91 17.15-3.26-4.16-16.28-19.49-39.76-31.43z" style="mix-blend-mode:multiply"/><path fill="#fff" d="M305.808 291.585h-153.38v83.55h153.38zm-76.8-62.65c30.216 0 54.71-14.036 54.71-31.35s-24.494-31.35-54.71-31.35c-30.215 0-54.71 14.036-54.71 31.35s24.495 31.35 54.71 31.35"/><path fill="#fff" d="M166.538 123.196c-23.53-.33-38.53 12.03-38.53 12.03-.11.77-.21 1.51-.31 2.24-.38 5.59-.69 11.33-.91 17.15 3.26-4.16 16.28-19.49 39.76-31.43zm-40.06 65.43s1.36-.79 2.41-2.2c3.89-5.17 9.26-13.94 21.3-20.97.17-.16.27-.26.29-.27-18.09 1.04-23.94 12.87-23.94 12.87-.02.02-.05.04-.07.07.02 3.1.08 6.2.17 9.3.07.64-.17 1.2-.17 1.2z" style="mix-blend-mode:multiply"/><path fill="#fff" d="M152.418 375.125h30v-83.55h-30z" opacity=".5" style="mix-blend-mode:multiply"/><path fill="#fff" d="M159.918 112.665c3.47-32.85 31.15-57.8 64.18-57.8h-30c-33.04 0-60.71 24.95-64.18 57.8-5.81 55.05-7.73 135.73 22.5 178.92h30c-30.23-43.18-28.32-123.87-22.5-178.92" opacity=".5" style="mix-blend-mode:multiply"/><path fill="#fff" d="M152.428 315.635h108.57v35.44h-108.57"/><path fill="#fff" d="M182.428 315.635h-30v35.45h30z" opacity=".5" style="mix-blend-mode:multiply"/><path stroke="#fff" stroke-linecap="round" stroke-linejoin="round" stroke-width="10.5" d="M152.458 315.635h108.57v35.44h-108.57"/><path stroke="#fff" stroke-linecap="round" stroke-linejoin="round" stroke-width="10.5" d="M194.128 54.865h69.81c33.04 0 60.71 24.95 64.18 57.8 5.81 55.05 7.73 135.73-22.5 178.92v83.55h-153.16v-83.55c-30.23-43.18-28.32-123.87-22.5-178.92 3.46-32.85 31.14-57.8 64.17-57.8"/><path stroke="#fff" stroke-linecap="round" stroke-linejoin="round" stroke-width="10.5" d="M127.868 136.306s-21.71-21.98-41.9.62c-16.85 18.86-10 96.04 66.48 154.63m153.17.029h-153.16m76.58-62.65c30.216 0 54.71-14.036 54.71-31.35s-24.494-31.35-54.71-31.35c-30.215 0-54.71 14.036-54.71 31.35s24.495 31.35 54.71 31.35m101.09-93.7s-15.35-12.66-39.36-12.02m-162.66 12.02s15.35-12.66 39.36-12.02m164.11 54.841s-5.85-11.82-23.94-12.87"/><path stroke="#fff" stroke-linecap="round" stroke-linejoin="round" stroke-width="10.5" d="M126.578 178.056s5.85-11.82 23.94-12.87"/></svg>
