<svg xmlns="http://www.w3.org/2000/svg" width="430" height="431" fill="none" viewBox="0 0 430 431"><path stroke="#fff" stroke-linecap="round" stroke-linejoin="round" stroke-width="10.5" d="M171.729 323.98V107.01m0 173.62 85.17-39.73a37.06 37.06 0 0 0 21.39-33.58v-41.49"/><path fill="#fff" d="M278.29 165.84c14.288 0 25.87-11.582 25.87-25.87s-11.582-25.87-25.87-25.87-25.87 11.582-25.87 25.87 11.582 25.87 25.87 25.87m-106.561-58.82c14.288 0 25.87-11.582 25.87-25.87s-11.582-25.87-25.87-25.87-25.87 11.582-25.87 25.87 11.583 25.87 25.87 25.87m0 268.69c14.288 0 25.87-11.582 25.87-25.87s-11.582-25.87-25.87-25.87-25.87 11.582-25.87 25.87 11.583 25.87 25.87 25.87"/><path fill="#fff" d="M154.56 81.15a25.87 25.87 0 0 1 21.51-25.5 25.87 25.87 0 1 0 0 51 25.86 25.86 0 0 1-21.51-25.5m0 268.69a25.855 25.855 0 0 1 21.51-25.49 25.87 25.87 0 0 0-21.041 5.726 25.9 25.9 0 0 0-6.78 8.871 25.88 25.88 0 0 0 0 21.806 25.87 25.87 0 0 0 27.821 14.597 25.87 25.87 0 0 1-21.51-25.51m106.559-209.87a25.866 25.866 0 0 1 21.51-25.5 25.866 25.866 0 0 0-27.82 14.597 25.88 25.88 0 0 0 0 21.806 25.86 25.86 0 0 0 16.667 14.059 25.9 25.9 0 0 0 11.153.538 25.86 25.86 0 0 1-21.51-25.5" opacity=".5" style="mix-blend-mode:multiply"/><path stroke="#fff" stroke-linecap="round" stroke-linejoin="round" stroke-width="10.5" d="M278.29 165.84c14.288 0 25.87-11.582 25.87-25.87s-11.582-25.87-25.87-25.87-25.87 11.582-25.87 25.87 11.582 25.87 25.87 25.87m-106.561-58.82c14.288 0 25.87-11.582 25.87-25.87s-11.582-25.87-25.87-25.87-25.87 11.582-25.87 25.87 11.583 25.87 25.87 25.87m0 268.69c14.288 0 25.87-11.582 25.87-25.87s-11.582-25.87-25.87-25.87-25.87 11.582-25.87 25.87 11.583 25.87 25.87 25.87"/></svg>