<svg xmlns="http://www.w3.org/2000/svg" width="430" height="430" fill="none" viewBox="0 0 430 430"><path fill="#fff" d="m212.8 152.45 38.4 50.4 49.9 23.4c23.8 2.1 24.9-21.5 24.9-21.5l-56.3-26.3-30.3-48.9-1.6-2.6"/><path fill="#fff" d="m212.8 152.45 38.4 50.4 49.9 23.4c23.8 2.1 24.9-21.5 24.9-21.5l-56.3-26.3-30.3-48.9-1.6-2.6" opacity=".5" style="mix-blend-mode:multiply"/><path fill="#fff" d="M210.4 86.95H230c3.5 0 6.3-2.8 6.3-6.3v-31.7c0-11.6-9.5-21.1-21.1-21.1h-4.8c-11.5 0-21 9.5-21 21.1v17c0 11.5 9.5 21 21 21m-32.3 131.1-8.6 69.3-47.1 47.3 25.6 26.6 55.3-51.5 32.6-72.3"/><path fill="#fff" d="m178.1 218.05-8.6 69.3-47.1 47.3 25.6 26.6 55.3-51.5 32.6-72.3" opacity=".5" style="mix-blend-mode:multiply"/><path fill="#fff" d="m178.1 218.05 54.2 90.3.8 68.7 36.2-1 4-75.2-31.2-82.8m-119.7 116.6-18.4 18.5 38.9 38.9c13.2-3.2 5.1-30.8 5.1-30.8z"/><path fill="#fff" d="m122.4 334.649-18.4 18.5 38.9 38.9c13.2-3.2 5.1-30.8 5.1-30.8z" opacity=".5" style="mix-blend-mode:multiply"/><path fill="#fff" d="m233.1 377.05.3 25.1h53.9c8.6-12.8-17.9-26.1-17.9-26.1zm-55-209.9v50.9h64v-75.7c0-4.5-.9-8.9-2.7-12.8-1.6-3.7-3.9-7-6.7-9.8-5.8-5.8-13.8-9.4-22.6-9.4-7.9 0-15.2 2.9-20.8 7.7l-.2.1"/><path fill="#fff" d="m190.1 117.35-50.5 40-25.9 48.7c-3.4 23.6 21.2 27 21.2 27l29.2-54.9 40.9-32.3"/><path stroke="#fff" stroke-linecap="round" stroke-linejoin="round" stroke-miterlimit="10" stroke-width="10.5" d="m242.1 189.15 9.2 13.7 49.9 23.4c23.8 2.1 24.9-21.5 24.9-21.5l-56.3-26.3-30.4-48.9-1.6-2.6m-59.7 91.1-8.7 69.3-65.5 65.8 38.9 38.9c13.2-3.2 5.1-30.8 5.1-30.8l55.3-51.6 12.4-29.2"/><path stroke="#fff" stroke-linecap="round" stroke-linejoin="round" stroke-miterlimit="10" stroke-width="10.5" d="m178.1 218.05 54.2 90.2 1 93.9h53.9c8.6-12.8-17.9-26.1-17.9-26.1l4-75.2-31.2-82.8"/><path stroke="#fff" stroke-linecap="round" stroke-linejoin="round" stroke-miterlimit="10" stroke-width="10.5" d="M178.1 167.15v50.9h64v-75.7c0-4.5-.9-8.9-2.7-12.8-1.6-3.7-3.9-7-6.7-9.8-5.8-5.8-13.8-9.4-22.6-9.4-7.9 0-15.2 2.9-20.8 7.7l-.2.1"/><path stroke="#fff" stroke-linecap="round" stroke-linejoin="round" stroke-miterlimit="10" stroke-width="10.5" d="m190.1 117.35-50.5 40-25.9 48.7c-3.4 23.6 21.2 27 21.2 27l29.2-54.9 40.9-32.3m5.4-58.9H230c3.5 0 6.3-2.8 6.3-6.3v-31.7c0-11.6-9.5-21.1-21.1-21.1h-4.8c-11.5 0-21 9.5-21 21.1v17c0 11.5 9.5 21 21 21"/><path fill="#fff" d="M238.8 43.75c.5 1.2-.4 2.4-1.6 2.4h-17.8c-4.1 0-7.4 3.3-7.4 7.4 0 2-.8 3.9-2.2 5.3-1.3 1.4-3.2 2.2-5.3 2.2h-6.8c-3.6 0-6.6 3-6.6 6.6H189c-1.2 0-2.1-.9-2.1-2.1v-14c0-11.6 9.5-21.1 21.1-21.1h11.3c8.7.1 16.4 5.6 19.5 13.3"/></svg>