<?xml version="1.0" encoding="UTF-8"?>
<svg version="1.1" xmlns="http://www.w3.org/2000/svg" width="1700" height="1700">
<path d="M0 0 C310.2 0 620.4 0 940 0 C940 0.66 940 1.32 940 2 C950.89 2 961.78 2 973 2 C973 3.32 973 4.64 973 6 C982.57 6 992.14 6 1002 6 C1002 7.32 1002 8.64 1002 10 C1008.93 10 1015.86 10 1023 10 C1023 11.32 1023 12.64 1023 14 C1029.6 14 1036.2 14 1043 14 C1043.33 15.32 1043.66 16.64 1044 18 C1045.05960938 17.98839844 1046.11921875 17.97679688 1047.2109375 17.96484375 C1048.59895658 17.95546524 1049.98697755 17.94636511 1051.375 17.9375 C1052.07367187 17.92912109 1052.77234375 17.92074219 1053.4921875 17.91210938 C1058.7734375 17.88671875 1058.7734375 17.88671875 1061 19 C1061 20.32 1061 21.64 1061 23 C1066.28 23 1071.56 23 1077 23 C1077 24.32 1077 25.64 1077 27 C1081.29 27 1085.58 27 1090 27 C1090 28.32 1090 29.64 1090 31 C1095.28 31 1100.56 31 1106 31 C1106.33 32.32 1106.66 33.64 1107 35 C1110.96 35 1114.92 35 1119 35 C1119 36.32 1119 37.64 1119 39 C1122.96 39 1126.92 39 1131 39 C1131.33 40.32 1131.66 41.64 1132 43 C1135.63 43 1139.26 43 1143 43 C1143.33 44.65 1143.66 46.3 1144 48 C1146.64 48 1149.28 48 1152 48 C1152 49.32 1152 50.64 1152 52 C1156.29 52 1160.58 52 1165 52 C1165 53.32 1165 54.64 1165 56 C1167.64 56 1170.28 56 1173 56 C1173 57.32 1173 58.64 1173 60 C1176.96 60 1180.92 60 1185 60 C1185.33 61.32 1185.66 62.64 1186 64 C1188.31 64 1190.62 64 1193 64 C1193.33 65.32 1193.66 66.64 1194 68 C1196.31 68 1198.62 68 1201 68 C1201.33 69.65 1201.66 71.3 1202 73 C1206.29 73 1210.58 73 1215 73 C1215 74.32 1215 75.64 1215 77 C1217.64 77 1220.28 77 1223 77 C1223 78.32 1223 79.64 1223 81 C1225.64 81 1228.28 81 1231 81 C1231.33 82.32 1231.66 83.64 1232 85 C1234.64 85 1237.28 85 1240 85 C1240 86.32 1240 87.64 1240 89 C1242.64 89 1245.28 89 1248 89 C1248 90.32 1248 91.64 1248 93 C1249.11375 92.979375 1250.2275 92.95875 1251.375 92.9375 C1255 93 1255 93 1257 94 C1257 95.32 1257 96.64 1257 98 C1258.32 98 1259.64 98 1261 98 C1261 99.32 1261 100.64 1261 102 C1263.64 102 1266.28 102 1269 102 C1269 103.32 1269 104.64 1269 106 C1271.64 106 1274.28 106 1277 106 C1277 107.32 1277 108.64 1277 110 C1279.64 110 1282.28 110 1285 110 C1285.33 111.32 1285.66 112.64 1286 114 C1287.32 114.33 1288.64 114.66 1290 115 C1290 115.99 1290 116.98 1290 118 C1292.31 118 1294.62 118 1297 118 C1297.33 119.65 1297.66 121.3 1298 123 C1300.64 123 1303.28 123 1306 123 C1306.33 124.32 1306.66 125.64 1307 127 C1308.32 127 1309.64 127 1311 127 C1311 128.32 1311 129.64 1311 131 C1313.64 131 1316.28 131 1319 131 C1319 132.32 1319 133.64 1319 135 C1320.32 135 1321.64 135 1323 135 C1323 136.32 1323 137.64 1323 139 C1325.64 139 1328.28 139 1331 139 C1331.33 140.32 1331.66 141.64 1332 143 C1333.32 143.33 1334.64 143.66 1336 144 C1336 145.32 1336 146.64 1336 148 C1338.64 148 1341.28 148 1344 148 C1344 149.32 1344 150.64 1344 152 C1345.32 152 1346.64 152 1348 152 C1348 153.32 1348 154.64 1348 156 C1349.32 156 1350.64 156 1352 156 C1352 157.32 1352 158.64 1352 160 C1354.64 160 1357.28 160 1360 160 C1360.33 161.32 1360.66 162.64 1361 164 C1362.32 164.33 1363.64 164.66 1365 165 C1365 165.99 1365 166.98 1365 168 C1367.31 168 1369.62 168 1372 168 C1372.33 169.65 1372.66 171.3 1373 173 C1374.32 173 1375.64 173 1377 173 C1377 174.32 1377 175.64 1377 177 C1378.65 177.33 1380.3 177.66 1382 178 C1382 178.99 1382 179.98 1382 181 C1383.32 181 1384.64 181 1386 181 C1386 182.32 1386 183.64 1386 185 C1388.64 185 1391.28 185 1394 185 C1394 186.32 1394 187.64 1394 189 C1395.32 189 1396.64 189 1398 189 C1398 190.32 1398 191.64 1398 193 C1399.32 193.33 1400.64 193.66 1402 194 C1402 195.32 1402 196.64 1402 198 C1403.65 198.33 1405.3 198.66 1407 199 C1407 199.99 1407 200.98 1407 202 C1408.32 202 1409.64 202 1411 202 C1411 203.32 1411 204.64 1411 206 C1412.32 206 1413.64 206 1415 206 C1415 207.32 1415 208.64 1415 210 C1417.64 210 1420.28 210 1423 210 C1423 211.32 1423 212.64 1423 214 C1424.32 214 1425.64 214 1427 214 C1427 215.32 1427 216.64 1427 218 C1428.65 218.33 1430.3 218.66 1432 219 C1432 220.32 1432 221.64 1432 223 C1433.32 223 1434.64 223 1436 223 C1436 224.32 1436 225.64 1436 227 C1437.32 227 1438.64 227 1440 227 C1440 228.32 1440 229.64 1440 231 C1441.32 231 1442.64 231 1444 231 C1444 232.32 1444 233.64 1444 235 C1445.32 235 1446.64 235 1448 235 C1448 236.32 1448 237.64 1448 239 C1449.32 239 1450.64 239 1452 239 C1452 240.32 1452 241.64 1452 243 C1453.65 243.33 1455.3 243.66 1457 244 C1457 245.32 1457 246.64 1457 248 C1458.32 248 1459.64 248 1461 248 C1461 249.32 1461 250.64 1461 252 C1462.32 252 1463.64 252 1465 252 C1465 253.32 1465 254.64 1465 256 C1466.32 256 1467.64 256 1469 256 C1469 257.32 1469 258.64 1469 260 C1470.32 260 1471.64 260 1473 260 C1473 261.32 1473 262.64 1473 264 C1474.32 264 1475.64 264 1477 264 C1477 265.32 1477 266.64 1477 268 C1478.65 268.33 1480.3 268.66 1482 269 C1482 270.32 1482 271.64 1482 273 C1483.32 273 1484.64 273 1486 273 C1486 274.32 1486 275.64 1486 277 C1487.32 277 1488.64 277 1490 277 C1490 279.64 1490 282.28 1490 285 C1491.32 285 1492.64 285 1494 285 C1494 286.32 1494 287.64 1494 289 C1495.32 289 1496.64 289 1498 289 C1498 290.32 1498 291.64 1498 293 C1499.32 293.33 1500.64 293.66 1502 294 C1502 295.32 1502 296.64 1502 298 C1503.65 298.33 1505.3 298.66 1507 299 C1507 299.99 1507 300.98 1507 302 C1508.32 302 1509.64 302 1511 302 C1511 303.32 1511 304.64 1511 306 C1512.32 306 1513.64 306 1515 306 C1515 308.64 1515 311.28 1515 314 C1516.32 314.33 1517.64 314.66 1519 315 C1519 315.99 1519 316.98 1519 318 C1520.32 318.33 1521.64 318.66 1523 319 C1523 320.32 1523 321.64 1523 323 C1524.32 323 1525.64 323 1527 323 C1527 324.32 1527 325.64 1527 327 C1528.65 327.33 1530.3 327.66 1532 328 C1532 330.31 1532 332.62 1532 335 C1533.32 335.33 1534.64 335.66 1536 336 C1536 336.99 1536 337.98 1536 339 C1537.32 339.33 1538.64 339.66 1540 340 C1540 342.64 1540 345.28 1540 348 C1541.32 348 1542.64 348 1544 348 C1544 349.32 1544 350.64 1544 352 C1545.32 352 1546.64 352 1548 352 C1548 353.32 1548 354.64 1548 356 C1549.32 356 1550.64 356 1552 356 C1552 358.64 1552 361.28 1552 364 C1553.65 364.33 1555.3 364.66 1557 365 C1557 365.99 1557 366.98 1557 368 C1558.32 368.33 1559.64 368.66 1561 369 C1561 371.64 1561 374.28 1561 377 C1562.32 377 1563.64 377 1565 377 C1565 378.32 1565 379.64 1565 381 C1566.32 381 1567.64 381 1569 381 C1569 383.64 1569 386.28 1569 389 C1570.32 389 1571.64 389 1573 389 C1573 390.32 1573 391.64 1573 393 C1574.32 393.33 1575.64 393.66 1577 394 C1577 396.64 1577 399.28 1577 402 C1578.65 402.33 1580.3 402.66 1582 403 C1582 405.64 1582 408.28 1582 411 C1583.32 411 1584.64 411 1586 411 C1586 411.99 1586 412.98 1586 414 C1587.32 414.33 1588.64 414.66 1590 415 C1590 417.64 1590 420.28 1590 423 C1591.32 423 1592.64 423 1594 423 C1594 425.64 1594 428.28 1594 431 C1595.32 431 1596.64 431 1598 431 C1598 433.64 1598 436.28 1598 439 C1599.32 439 1600.64 439 1602 439 C1602 440.32 1602 441.64 1602 443 C1603.65 443.33 1605.3 443.66 1607 444 C1607 446.64 1607 449.28 1607 452 C1608.32 452 1609.64 452 1611 452 C1611 454.64 1611 457.28 1611 460 C1612.32 460 1613.64 460 1615 460 C1615 462.64 1615 465.28 1615 468 C1616.32 468.33 1617.64 468.66 1619 469 C1619 471.64 1619 474.28 1619 477 C1620.32 477 1621.64 477 1623 477 C1623 479.64 1623 482.28 1623 485 C1624.32 485 1625.64 485 1627 485 C1627 489.29 1627 493.58 1627 498 C1628.65 498.33 1630.3 498.66 1632 499 C1632 501.31 1632 503.62 1632 506 C1633.32 506 1634.64 506 1636 506 C1636 508.64 1636 511.28 1636 514 C1637.32 514.33 1638.64 514.66 1640 515 C1640 518.96 1640 522.92 1640 527 C1641.32 527 1642.64 527 1644 527 C1644 529.64 1644 532.28 1644 535 C1645.32 535 1646.64 535 1648 535 C1648 539.29 1648 543.58 1648 548 C1649.32 548 1650.64 548 1652 548 C1652 550.64 1652 553.28 1652 556 C1653.65 556.33 1655.3 556.66 1657 557 C1657 560.63 1657 564.26 1657 568 C1658.32 568.33 1659.64 568.66 1661 569 C1661 572.96 1661 576.92 1661 581 C1662.32 581 1663.64 581 1665 581 C1665 584.96 1665 588.92 1665 593 C1666.32 593.33 1667.64 593.66 1669 594 C1669 599.28 1669 604.56 1669 610 C1670.32 610 1671.64 610 1673 610 C1673 614.29 1673 618.58 1673 623 C1674.32 623 1675.64 623 1677 623 C1677 628.28 1677 633.56 1677 639 C1678.65 639.33 1680.3 639.66 1682 640 C1682 645.28 1682 650.56 1682 656 C1683.32 656 1684.64 656 1686 656 C1686 662.93 1686 669.86 1686 677 C1687.32 677 1688.64 677 1690 677 C1690 683.93 1690 690.86 1690 698 C1691.32 698 1692.64 698 1694 698 C1694 707.57 1694 717.14 1694 727 C1695.32 727 1696.64 727 1698 727 C1698 737.89 1698 748.78 1698 760 C1698.66 760 1699.32 760 1700 760 C1700 819.4 1700 878.8 1700 940 C1699.34 940 1698.68 940 1698 940 C1698 950.89 1698 961.78 1698 973 C1696.68 973 1695.36 973 1694 973 C1694 982.57 1694 992.14 1694 1002 C1692.68 1002 1691.36 1002 1690 1002 C1690 1008.93 1690 1015.86 1690 1023 C1688.68 1023 1687.36 1023 1686 1023 C1686 1029.93 1686 1036.86 1686 1044 C1684.68 1044 1683.36 1044 1682 1044 C1682 1049.28 1682 1054.56 1682 1060 C1680.35 1060.33 1678.7 1060.66 1677 1061 C1677 1066.28 1677 1071.56 1677 1077 C1675.68 1077 1674.36 1077 1673 1077 C1673 1081.29 1673 1085.58 1673 1090 C1671.68 1090 1670.36 1090 1669 1090 C1669 1095.28 1669 1100.56 1669 1106 C1667.68 1106.33 1666.36 1106.66 1665 1107 C1665 1110.96 1665 1114.92 1665 1119 C1663.68 1119 1662.36 1119 1661 1119 C1661 1122.96 1661 1126.92 1661 1131 C1659.68 1131.33 1658.36 1131.66 1657 1132 C1657 1135.63 1657 1139.26 1657 1143 C1655.35 1143.33 1653.7 1143.66 1652 1144 C1652 1146.64 1652 1149.28 1652 1152 C1650.68 1152 1649.36 1152 1648 1152 C1648 1156.29 1648 1160.58 1648 1165 C1646.68 1165 1645.36 1165 1644 1165 C1644 1167.64 1644 1170.28 1644 1173 C1642.68 1173 1641.36 1173 1640 1173 C1640 1176.96 1640 1180.92 1640 1185 C1638.68 1185.33 1637.36 1185.66 1636 1186 C1636 1188.64 1636 1191.28 1636 1194 C1634.68 1194 1633.36 1194 1632 1194 C1632 1196.31 1632 1198.62 1632 1201 C1630.35 1201.33 1628.7 1201.66 1627 1202 C1627 1206.29 1627 1210.58 1627 1215 C1625.68 1215 1624.36 1215 1623 1215 C1623 1217.64 1623 1220.28 1623 1223 C1621.68 1223 1620.36 1223 1619 1223 C1619 1225.64 1619 1228.28 1619 1231 C1617.68 1231.33 1616.36 1231.66 1615 1232 C1615 1234.64 1615 1237.28 1615 1240 C1613.68 1240 1612.36 1240 1611 1240 C1611 1242.64 1611 1245.28 1611 1248 C1609.68 1248 1608.36 1248 1607 1248 C1607 1250.64 1607 1253.28 1607 1256 C1605.35 1256.33 1603.7 1256.66 1602 1257 C1602 1258.32 1602 1259.64 1602 1261 C1600.68 1261 1599.36 1261 1598 1261 C1598 1263.64 1598 1266.28 1598 1269 C1596.68 1269 1595.36 1269 1594 1269 C1594 1271.64 1594 1274.28 1594 1277 C1592.68 1277 1591.36 1277 1590 1277 C1590 1279.64 1590 1282.28 1590 1285 C1588.68 1285.33 1587.36 1285.66 1586 1286 C1585.67 1287.32 1585.34 1288.64 1585 1290 C1584.01 1290 1583.02 1290 1582 1290 C1582 1292.31 1582 1294.62 1582 1297 C1580.35 1297.33 1578.7 1297.66 1577 1298 C1577 1300.64 1577 1303.28 1577 1306 C1575.68 1306.33 1574.36 1306.66 1573 1307 C1573 1308.32 1573 1309.64 1573 1311 C1571.68 1311 1570.36 1311 1569 1311 C1569 1313.64 1569 1316.28 1569 1319 C1567.68 1319 1566.36 1319 1565 1319 C1565 1320.32 1565 1321.64 1565 1323 C1563.68 1323 1562.36 1323 1561 1323 C1561 1325.64 1561 1328.28 1561 1331 C1559.68 1331.33 1558.36 1331.66 1557 1332 C1556.67 1333.32 1556.34 1334.64 1556 1336 C1554.68 1336 1553.36 1336 1552 1336 C1552 1338.64 1552 1341.28 1552 1344 C1550.68 1344 1549.36 1344 1548 1344 C1548 1345.32 1548 1346.64 1548 1348 C1546.68 1348 1545.36 1348 1544 1348 C1544 1349.32 1544 1350.64 1544 1352 C1542.68 1352 1541.36 1352 1540 1352 C1540 1354.64 1540 1357.28 1540 1360 C1538.68 1360.33 1537.36 1360.66 1536 1361 C1535.67 1362.32 1535.34 1363.64 1535 1365 C1534.01 1365 1533.02 1365 1532 1365 C1532 1367.31 1532 1369.62 1532 1372 C1530.35 1372.33 1528.7 1372.66 1527 1373 C1527 1374.32 1527 1375.64 1527 1377 C1525.68 1377 1524.36 1377 1523 1377 C1522.67 1378.65 1522.34 1380.3 1522 1382 C1521.01 1382 1520.02 1382 1519 1382 C1518.67 1383.32 1518.34 1384.64 1518 1386 C1517.01 1386 1516.02 1386 1515 1386 C1515 1388.64 1515 1391.28 1515 1394 C1513.68 1394 1512.36 1394 1511 1394 C1511 1395.32 1511 1396.64 1511 1398 C1509.68 1398 1508.36 1398 1507 1398 C1506.67 1399.32 1506.34 1400.64 1506 1402 C1504.68 1402 1503.36 1402 1502 1402 C1501.67 1403.65 1501.34 1405.3 1501 1407 C1500.01 1407 1499.02 1407 1498 1407 C1498 1408.32 1498 1409.64 1498 1411 C1496.68 1411 1495.36 1411 1494 1411 C1494 1412.32 1494 1413.64 1494 1415 C1492.68 1415 1491.36 1415 1490 1415 C1490 1417.64 1490 1420.28 1490 1423 C1488.68 1423 1487.36 1423 1486 1423 C1486 1424.32 1486 1425.64 1486 1427 C1484.68 1427 1483.36 1427 1482 1427 C1482 1428.32 1482 1429.64 1482 1431 C1480.35 1431.33 1478.7 1431.66 1477 1432 C1477 1433.32 1477 1434.64 1477 1436 C1475.68 1436 1474.36 1436 1473 1436 C1473 1437.32 1473 1438.64 1473 1440 C1471.68 1440 1470.36 1440 1469 1440 C1469 1441.32 1469 1442.64 1469 1444 C1467.68 1444 1466.36 1444 1465 1444 C1465 1445.32 1465 1446.64 1465 1448 C1463.68 1448 1462.36 1448 1461 1448 C1461 1449.32 1461 1450.64 1461 1452 C1459.68 1452 1458.36 1452 1457 1452 C1457 1453.32 1457 1454.64 1457 1456 C1455.35 1456.33 1453.7 1456.66 1452 1457 C1452 1458.32 1452 1459.64 1452 1461 C1450.68 1461 1449.36 1461 1448 1461 C1448 1462.32 1448 1463.64 1448 1465 C1446.68 1465 1445.36 1465 1444 1465 C1444 1466.32 1444 1467.64 1444 1469 C1442.68 1469 1441.36 1469 1440 1469 C1440 1470.32 1440 1471.64 1440 1473 C1438.68 1473 1437.36 1473 1436 1473 C1436 1474.32 1436 1475.64 1436 1477 C1434.68 1477 1433.36 1477 1432 1477 C1432 1478.32 1432 1479.64 1432 1481 C1430.35 1481.33 1428.7 1481.66 1427 1482 C1427 1483.32 1427 1484.64 1427 1486 C1425.68 1486 1424.36 1486 1423 1486 C1423 1487.32 1423 1488.64 1423 1490 C1420.36 1490 1417.72 1490 1415 1490 C1415 1491.32 1415 1492.64 1415 1494 C1413.68 1494 1412.36 1494 1411 1494 C1411 1495.32 1411 1496.64 1411 1498 C1409.68 1498 1408.36 1498 1407 1498 C1406.67 1499.32 1406.34 1500.64 1406 1502 C1404.68 1502 1403.36 1502 1402 1502 C1401.67 1503.65 1401.34 1505.3 1401 1507 C1400.01 1507 1399.02 1507 1398 1507 C1398 1508.32 1398 1509.64 1398 1511 C1396.68 1511 1395.36 1511 1394 1511 C1394 1512.32 1394 1513.64 1394 1515 C1391.36 1515 1388.72 1515 1386 1515 C1386 1516.32 1386 1517.64 1386 1519 C1384.68 1519 1383.36 1519 1382 1519 C1381.67 1520.32 1381.34 1521.64 1381 1523 C1379.68 1523 1378.36 1523 1377 1523 C1377 1524.32 1377 1525.64 1377 1527 C1374.36 1527 1371.72 1527 1369 1527 C1368.67 1528.65 1368.34 1530.3 1368 1532 C1367.01 1532 1366.02 1532 1365 1532 C1364.67 1533.32 1364.34 1534.64 1364 1536 C1363.01 1536 1362.02 1536 1361 1536 C1360.67 1537.32 1360.34 1538.64 1360 1540 C1357.36 1540 1354.72 1540 1352 1540 C1352 1541.32 1352 1542.64 1352 1544 C1350.68 1544 1349.36 1544 1348 1544 C1348 1545.32 1348 1546.64 1348 1548 C1346.68 1548 1345.36 1548 1344 1548 C1344 1549.32 1344 1550.64 1344 1552 C1341.36 1552 1338.72 1552 1336 1552 C1336 1553.32 1336 1554.64 1336 1556 C1334.68 1556.33 1333.36 1556.66 1332 1557 C1331.67 1558.32 1331.34 1559.64 1331 1561 C1328.36 1561 1325.72 1561 1323 1561 C1323 1562.32 1323 1563.64 1323 1565 C1321.68 1565 1320.36 1565 1319 1565 C1319 1566.32 1319 1567.64 1319 1569 C1316.36 1569 1313.72 1569 1311 1569 C1311 1570.32 1311 1571.64 1311 1573 C1309.68 1573 1308.36 1573 1307 1573 C1306.67 1574.32 1306.34 1575.64 1306 1577 C1303.36 1577 1300.72 1577 1298 1577 C1297.67 1578.65 1297.34 1580.3 1297 1582 C1294.69 1582 1292.38 1582 1290 1582 C1289.67 1583.32 1289.34 1584.64 1289 1586 C1288.01 1586 1287.02 1586 1286 1586 C1285.67 1587.32 1285.34 1588.64 1285 1590 C1282.36 1590 1279.72 1590 1277 1590 C1277 1591.32 1277 1592.64 1277 1594 C1274.36 1594 1271.72 1594 1269 1594 C1269 1595.32 1269 1596.64 1269 1598 C1266.36 1598 1263.72 1598 1261 1598 C1261 1599.32 1261 1600.64 1261 1602 C1259.68 1602 1258.36 1602 1257 1602 C1257 1603.32 1257 1604.64 1257 1606 C1254.04335481 1607.4783226 1251.25770263 1607.06032783 1248 1607 C1248 1608.32 1248 1609.64 1248 1611 C1245.36 1611 1242.72 1611 1240 1611 C1240 1612.32 1240 1613.64 1240 1615 C1237.36 1615 1234.72 1615 1232 1615 C1231.67 1616.32 1231.34 1617.64 1231 1619 C1228.36 1619 1225.72 1619 1223 1619 C1223 1620.32 1223 1621.64 1223 1623 C1220.36 1623 1217.72 1623 1215 1623 C1215 1624.32 1215 1625.64 1215 1627 C1210.71 1627 1206.42 1627 1202 1627 C1201.67 1628.65 1201.34 1630.3 1201 1632 C1198.69 1632 1196.38 1632 1194 1632 C1193.67 1633.32 1193.34 1634.64 1193 1636 C1190.69 1636 1188.38 1636 1186 1636 C1185.67 1637.32 1185.34 1638.64 1185 1640 C1181.04 1640 1177.08 1640 1173 1640 C1173 1641.32 1173 1642.64 1173 1644 C1170.36 1644 1167.72 1644 1165 1644 C1165 1645.32 1165 1646.64 1165 1648 C1160.71 1648 1156.42 1648 1152 1648 C1152 1649.32 1152 1650.64 1152 1652 C1149.36 1652 1146.72 1652 1144 1652 C1143.67 1653.65 1143.34 1655.3 1143 1657 C1139.37 1657 1135.74 1657 1132 1657 C1131.67 1658.32 1131.34 1659.64 1131 1661 C1127.04 1661 1123.08 1661 1119 1661 C1119 1662.32 1119 1663.64 1119 1665 C1115.04 1665 1111.08 1665 1107 1665 C1106.67 1666.32 1106.34 1667.64 1106 1669 C1100.72 1669 1095.44 1669 1090 1669 C1090 1670.32 1090 1671.64 1090 1673 C1085.71 1673 1081.42 1673 1077 1673 C1077 1674.32 1077 1675.64 1077 1677 C1071.72 1677 1066.44 1677 1061 1677 C1061 1678.32 1061 1679.64 1061 1681 C1057.93466836 1682.53266582 1054.73245728 1682.10276471 1051.375 1682.0625 C1050.66859375 1682.05798828 1049.9621875 1682.05347656 1049.234375 1682.04882812 C1047.48954725 1682.03703875 1045.744763 1682.01910324 1044 1682 C1043.67 1683.32 1043.34 1684.64 1043 1686 C1036.4 1686 1029.8 1686 1023 1686 C1023 1687.32 1023 1688.64 1023 1690 C1016.07 1690 1009.14 1690 1002 1690 C1002 1691.32 1002 1692.64 1002 1694 C992.43 1694 982.86 1694 973 1694 C973 1695.32 973 1696.64 973 1698 C962.11 1698 951.22 1698 940 1698 C940 1698.66 940 1699.32 940 1700 C880.6 1700 821.2 1700 760 1700 C760 1699.34 760 1698.68 760 1698 C749.11 1698 738.22 1698 727 1698 C727 1696.68 727 1695.36 727 1694 C717.43 1694 707.86 1694 698 1694 C698 1692.68 698 1691.36 698 1690 C691.07 1690 684.14 1690 677 1690 C677 1688.68 677 1687.36 677 1686 C670.4 1686 663.8 1686 657 1686 C656.67 1684.68 656.34 1683.36 656 1682 C654.94039062 1682.01160156 653.88078125 1682.02320313 652.7890625 1682.03515625 C651.40104342 1682.04453476 650.01302245 1682.05363489 648.625 1682.0625 C647.92632813 1682.07087891 647.22765625 1682.07925781 646.5078125 1682.08789062 C641.2265625 1682.11328125 641.2265625 1682.11328125 639 1681 C639 1679.68 639 1678.36 639 1677 C633.72 1677 628.44 1677 623 1677 C623 1675.68 623 1674.36 623 1673 C618.71 1673 614.42 1673 610 1673 C610 1671.68 610 1670.36 610 1669 C604.72 1669 599.44 1669 594 1669 C593.67 1667.68 593.34 1666.36 593 1665 C589.04 1665 585.08 1665 581 1665 C581 1663.68 581 1662.36 581 1661 C577.04 1661 573.08 1661 569 1661 C568.67 1659.68 568.34 1658.36 568 1657 C564.37 1657 560.74 1657 557 1657 C556.67 1655.35 556.34 1653.7 556 1652 C553.36 1652 550.72 1652 548 1652 C548 1650.68 548 1649.36 548 1648 C543.71 1648 539.42 1648 535 1648 C535 1646.68 535 1645.36 535 1644 C532.36 1644 529.72 1644 527 1644 C527 1642.68 527 1641.36 527 1640 C523.04 1640 519.08 1640 515 1640 C514.67 1638.68 514.34 1637.36 514 1636 C511.69 1636 509.38 1636 507 1636 C506.67 1634.68 506.34 1633.36 506 1632 C503.69 1632 501.38 1632 499 1632 C498.67 1630.35 498.34 1628.7 498 1627 C493.71 1627 489.42 1627 485 1627 C485 1625.68 485 1624.36 485 1623 C482.36 1623 479.72 1623 477 1623 C477 1621.68 477 1620.36 477 1619 C474.36 1619 471.72 1619 469 1619 C468.67 1617.68 468.34 1616.36 468 1615 C465.69 1615 463.38 1615 461 1615 C460.67 1613.68 460.34 1612.36 460 1611 C457.69 1611 455.38 1611 453 1611 C452.67 1609.68 452.34 1608.36 452 1607 C450.329375 1607.061875 450.329375 1607.061875 448.625 1607.125 C445 1607 445 1607 443 1605 C443 1604.01 443 1603.02 443 1602 C441.68 1602 440.36 1602 439 1602 C439 1600.68 439 1599.36 439 1598 C436.36 1598 433.72 1598 431 1598 C431 1596.68 431 1595.36 431 1594 C428.36 1594 425.72 1594 423 1594 C423 1592.68 423 1591.36 423 1590 C420.36 1590 417.72 1590 415 1590 C414.67 1588.68 414.34 1587.36 414 1586 C412.68 1585.67 411.36 1585.34 410 1585 C410 1584.01 410 1583.02 410 1582 C407.69 1582 405.38 1582 403 1582 C402.67 1580.35 402.34 1578.7 402 1577 C399.36 1577 396.72 1577 394 1577 C393.67 1575.68 393.34 1574.36 393 1573 C391.68 1572.67 390.36 1572.34 389 1572 C389 1571.01 389 1570.02 389 1569 C386.36 1569 383.72 1569 381 1569 C381 1567.68 381 1566.36 381 1565 C379.68 1565 378.36 1565 377 1565 C377 1563.68 377 1562.36 377 1561 C374.36 1561 371.72 1561 369 1561 C368.67 1559.68 368.34 1558.36 368 1557 C366.68 1556.67 365.36 1556.34 364 1556 C364 1554.68 364 1553.36 364 1552 C361.36 1552 358.72 1552 356 1552 C356 1550.68 356 1549.36 356 1548 C354.68 1548 353.36 1548 352 1548 C352 1546.68 352 1545.36 352 1544 C350.68 1544 349.36 1544 348 1544 C348 1542.68 348 1541.36 348 1540 C345.36 1540 342.72 1540 340 1540 C339.67 1538.68 339.34 1537.36 339 1536 C337.68 1535.67 336.36 1535.34 335 1535 C335 1534.01 335 1533.02 335 1532 C332.69 1532 330.38 1532 328 1532 C327.67 1530.35 327.34 1528.7 327 1527 C325.68 1527 324.36 1527 323 1527 C323 1525.68 323 1524.36 323 1523 C321.35 1522.67 319.7 1522.34 318 1522 C318 1521.01 318 1520.02 318 1519 C316.68 1518.67 315.36 1518.34 314 1518 C314 1517.01 314 1516.02 314 1515 C311.36 1515 308.72 1515 306 1515 C306 1513.68 306 1512.36 306 1511 C304.68 1510.67 303.36 1510.34 302 1510 C302 1509.01 302 1508.02 302 1507 C300.68 1506.67 299.36 1506.34 298 1506 C298 1504.68 298 1503.36 298 1502 C296.35 1501.67 294.7 1501.34 293 1501 C293 1500.01 293 1499.02 293 1498 C291.68 1497.67 290.36 1497.34 289 1497 C289 1496.01 289 1495.02 289 1494 C287.68 1494 286.36 1494 285 1494 C285 1492.68 285 1491.36 285 1490 C282.36 1490 279.72 1490 277 1490 C277 1488.68 277 1487.36 277 1486 C275.68 1486 274.36 1486 273 1486 C273 1484.68 273 1483.36 273 1482 C271.68 1481.67 270.36 1481.34 269 1481 C268.67 1479.68 268.34 1478.36 268 1477 C266.68 1477 265.36 1477 264 1477 C264 1475.68 264 1474.36 264 1473 C262.68 1473 261.36 1473 260 1473 C260 1471.68 260 1470.36 260 1469 C258.68 1469 257.36 1469 256 1469 C256 1467.68 256 1466.36 256 1465 C254.68 1465 253.36 1465 252 1465 C252 1463.68 252 1462.36 252 1461 C250.68 1461 249.36 1461 248 1461 C248 1459.68 248 1458.36 248 1457 C246.68 1456.67 245.36 1456.34 244 1456 C243.67 1454.68 243.34 1453.36 243 1452 C241.68 1452 240.36 1452 239 1452 C239 1450.68 239 1449.36 239 1448 C237.68 1448 236.36 1448 235 1448 C235 1446.68 235 1445.36 235 1444 C233.68 1444 232.36 1444 231 1444 C231 1442.68 231 1441.36 231 1440 C229.68 1440 228.36 1440 227 1440 C227 1438.68 227 1437.36 227 1436 C225.68 1436 224.36 1436 223 1436 C223 1434.68 223 1433.36 223 1432 C221.68 1431.67 220.36 1431.34 219 1431 C218.67 1429.68 218.34 1428.36 218 1427 C216.68 1427 215.36 1427 214 1427 C214 1425.68 214 1424.36 214 1423 C212.68 1423 211.36 1423 210 1423 C210 1420.36 210 1417.72 210 1415 C208.68 1415 207.36 1415 206 1415 C206 1413.68 206 1412.36 206 1411 C204.68 1410.67 203.36 1410.34 202 1410 C202 1409.01 202 1408.02 202 1407 C200.68 1406.67 199.36 1406.34 198 1406 C198 1404.68 198 1403.36 198 1402 C196.35 1401.67 194.7 1401.34 193 1401 C193 1400.01 193 1399.02 193 1398 C191.68 1397.67 190.36 1397.34 189 1397 C189 1396.01 189 1395.02 189 1394 C187.68 1394 186.36 1394 185 1394 C185 1391.36 185 1388.72 185 1386 C183.68 1385.67 182.36 1385.34 181 1385 C181 1384.01 181 1383.02 181 1382 C179.68 1381.67 178.36 1381.34 177 1381 C177 1379.68 177 1378.36 177 1377 C175.68 1377 174.36 1377 173 1377 C173 1375.68 173 1374.36 173 1373 C171.35 1372.67 169.7 1372.34 168 1372 C168 1369.69 168 1367.38 168 1365 C166.68 1364.67 165.36 1364.34 164 1364 C164 1363.01 164 1362.02 164 1361 C162.68 1360.67 161.36 1360.34 160 1360 C160 1357.36 160 1354.72 160 1352 C158.68 1352 157.36 1352 156 1352 C156 1350.68 156 1349.36 156 1348 C154.68 1348 153.36 1348 152 1348 C152 1346.68 152 1345.36 152 1344 C150.68 1344 149.36 1344 148 1344 C148 1341.36 148 1338.72 148 1336 C146.68 1336 145.36 1336 144 1336 C143.67 1334.68 143.34 1333.36 143 1332 C141.68 1331.67 140.36 1331.34 139 1331 C139 1328.36 139 1325.72 139 1323 C137.68 1323 136.36 1323 135 1323 C135 1321.68 135 1320.36 135 1319 C133.68 1319 132.36 1319 131 1319 C131 1316.36 131 1313.72 131 1311 C129.68 1310.67 128.36 1310.34 127 1310 C127 1309.01 127 1308.02 127 1307 C125.68 1306.67 124.36 1306.34 123 1306 C123 1303.36 123 1300.72 123 1298 C121.35 1297.67 119.7 1297.34 118 1297 C118 1294.69 118 1292.38 118 1290 C116.68 1289.67 115.36 1289.34 114 1289 C114 1288.01 114 1287.02 114 1286 C112.68 1285.67 111.36 1285.34 110 1285 C110 1282.36 110 1279.72 110 1277 C108.68 1277 107.36 1277 106 1277 C106 1274.36 106 1271.72 106 1269 C104.68 1269 103.36 1269 102 1269 C102 1266.36 102 1263.72 102 1261 C100.68 1261 99.36 1261 98 1261 C98 1259.68 98 1258.36 98 1257 C97.360625 1256.855625 96.72125 1256.71125 96.0625 1256.5625 C94 1256 94 1256 93 1255 C92.95907063 1252.66702567 92.95758277 1250.33294775 93 1248 C91.68 1247.67 90.36 1247.34 89 1247 C89 1244.69 89 1242.38 89 1240 C87.68 1239.67 86.36 1239.34 85 1239 C85 1236.69 85 1234.38 85 1232 C83.68 1231.67 82.36 1231.34 81 1231 C81 1228.36 81 1225.72 81 1223 C79.68 1223 78.36 1223 77 1223 C77 1220.36 77 1217.72 77 1215 C75.68 1215 74.36 1215 73 1215 C73 1210.71 73 1206.42 73 1202 C71.35 1201.67 69.7 1201.34 68 1201 C68 1198.69 68 1196.38 68 1194 C66.68 1193.67 65.36 1193.34 64 1193 C64 1190.69 64 1188.38 64 1186 C62.68 1185.67 61.36 1185.34 60 1185 C60 1181.04 60 1177.08 60 1173 C58.68 1173 57.36 1173 56 1173 C56 1170.36 56 1167.72 56 1165 C54.68 1165 53.36 1165 52 1165 C52 1160.71 52 1156.42 52 1152 C50.68 1152 49.36 1152 48 1152 C48 1149.36 48 1146.72 48 1144 C46.35 1143.67 44.7 1143.34 43 1143 C43 1139.37 43 1135.74 43 1132 C41.68 1131.67 40.36 1131.34 39 1131 C39 1127.04 39 1123.08 39 1119 C37.68 1119 36.36 1119 35 1119 C35 1115.04 35 1111.08 35 1107 C33.68 1106.67 32.36 1106.34 31 1106 C31 1100.72 31 1095.44 31 1090 C29.68 1090 28.36 1090 27 1090 C27 1085.71 27 1081.42 27 1077 C25.68 1077 24.36 1077 23 1077 C23 1071.72 23 1066.44 23 1061 C21.68 1061 20.36 1061 19 1061 C17.46733418 1057.93466836 17.89723529 1054.73245728 17.9375 1051.375 C17.94201172 1050.66859375 17.94652344 1049.9621875 17.95117188 1049.234375 C17.96296125 1047.48954725 17.98089676 1045.744763 18 1044 C16.68 1043.67 15.36 1043.34 14 1043 C14 1036.4 14 1029.8 14 1023 C12.68 1023 11.36 1023 10 1023 C10 1016.07 10 1009.14 10 1002 C8.68 1002 7.36 1002 6 1002 C6 992.43 6 982.86 6 973 C4.68 973 3.36 973 2 973 C2 962.11 2 951.22 2 940 C1.34 940 0.68 940 0 940 C0 629.8 0 319.6 0 0 Z " fill="#296EFF" transform="translate(0,0)"/>
</svg>
